<svg width="19.94" xmlns="http://www.w3.org/2000/svg" height="19.5" id="screenshot-034f8560-b393-801a-8008-29eaff62477e" viewBox="0 0 19.94 19.5" xmlns:xlink="http://www.w3.org/1999/xlink" fill="none" version="1.1"><g id="shape-034f8560-b393-801a-8008-29eaff62477e"><g class="fills" id="fills-034f8560-b393-801a-8008-29eaff62477e"><path d="M5.549956321716309,1.5800018310546875L4.120024681091309,0.15000152587890625C1.7200000286102295,1.9799995422363281,0.1400439739227295,4.799999237060547,0.000029325485229492188,8L2.0000293254852295,8C2.1441943645477295,5.4311370849609375,3.4509570598602295,3.0679359436035156,5.549956321716309,1.5800018310546875M17.939970016479492,8L19.939970016479492,8C19.790006637573242,4.799999237060547,18.209989547729492,1.9799995422363281,15.819975852966309,0.15000152587890625L14.399992942810059,1.5800018310546875C16.489652633666992,3.0749778747558594,17.790922164916992,5.434955596923828,17.939970016479492,8M15.970000267028809,8.5C15.970000267028809,5.430000305175781,14.329985618591309,2.8600006103515625,11.470000267028809,2.1800003051757812L11.470000267028809,1.5C11.470000267028809,0.6699981689453125,10.799956321716309,0,9.970000267028809,0C9.140044212341309,0,8.470000267028809,0.6699981689453125,8.470000267028809,1.5L8.470000267028809,2.1800003051757812C5.600005149841309,2.8600006103515625,3.9700000286102295,5.4199981689453125,3.9700000286102295,8.5L3.9700000286102295,13.5L1.9700000286102295,15.5L1.9700000286102295,16.5L17.969999313354492,16.5L17.969999313354492,15.5L15.970000267028809,13.5ZM9.970000267028809,19.5C10.110014915466309,19.5,10.240019798278809,19.48999786376953,10.370024681091309,19.459999084472656C11.019988059997559,19.31999969482422,11.549956321716309,18.87999725341797,11.809966087341309,18.279998779296875C11.910002708435059,18.040000915527344,11.959990501403809,17.779998779296875,11.959990501403809,17.5L7.959990501403809,17.5C7.970000267028809,18.599998474121094,8.860014915466309,19.5,9.970000267028809,19.5" style="fill: rgb(86, 128, 255); fill-opacity: 1;"/></g></g></svg>