<svg width="16" xmlns="http://www.w3.org/2000/svg" height="19.5" id="screenshot-034f8560-b393-801a-8008-29eaff621ba6" viewBox="0 0 16 19.5" xmlns:xlink="http://www.w3.org/1999/xlink" fill="none" version="1.1"><g id="shape-034f8560-b393-801a-8008-29eaff621ba6"><g class="fills" id="fills-034f8560-b393-801a-8008-29eaff621ba6"><path d="M8,19.5C9.0999755859375,19.5,10,18.599998474121094,10,17.5L6,17.5C6,18.604568481445312,6.8953857421875,19.5,8,19.5M14,13.5L14,8.5C14,5.430000305175781,12.3599853515625,2.8600006103515625,9.5,2.1800003051757812L9.5,1.5C9.5,0.6699981689453125,8.8299560546875,0,8,0C7.1700439453125,0,6.5,0.6699981689453125,6.5,1.5L6.5,2.1800003051757812C3.6300048828125,2.8600006103515625,2,5.4199981689453125,2,8.5L2,13.5L0,15.5L0,16.5L16,16.5L16,15.5Z" style="fill: rgb(86, 128, 255); fill-opacity: 1;"/></g></g></svg>