<?xml version="1.0" encoding="UTF-8"?>
<svg xmlns="http://www.w3.org/2000/svg" viewBox="0 0 556.28 503">
  <defs>
    <style>
      .cls-1 {
        fill: #e54848;
      }

      .cls-2 {
        fill: #383838;
        stroke: #000;
        stroke-miterlimit: 10;
      }

      .cls-3 {
        fill: #c6c6c6;
      }

      .cls-4 {
        fill: #e2be49;
      }
    </style>
  </defs>
  <g id="Layer_3" data-name="Layer 3">
    <g>
      <path class="cls-4" d="m63.37,165.65c-3.47,0-6.32-.93-8.46-2.76-4.91-4.2-5.65-12.73-2.09-24.02,3.6-11.43,11.18-24.26,21.33-36.12,15.9-18.59,35.18-31.07,47.98-31.07,3.47,0,6.32.93,8.46,2.76,10.25,8.77,1.62,35.75-19.24,60.14-15.9,18.58-35.18,31.07-47.98,31.07Z"/>
      <path d="m122.14,71.18v1c3.35,0,6.09.89,8.13,2.64,4.75,4.06,5.43,12.4,1.94,23.49-3.58,11.37-11.12,24.13-21.23,35.95-15.81,18.48-34.94,30.9-47.6,30.9-3.35,0-6.09-.89-8.13-2.64-4.75-4.06-5.43-12.4-1.94-23.49,3.58-11.37,11.12-24.13,21.23-35.95,15.81-18.48,34.94-30.9,47.6-30.9v-1m0,0c-12.62,0-31.87,11.97-48.36,31.25-21.08,24.64-29.67,51.88-19.18,60.84,2.28,1.95,5.27,2.88,8.78,2.88,12.62,0,31.87-11.97,48.36-31.25,21.08-24.64,29.67-51.88,19.18-60.84-2.28-1.95-5.27-2.88-8.78-2.88h0Z"/>
    </g>
    <g>
      <path class="cls-4" d="m493.81,159.89c-12.78,0-32.17-12-48.25-29.85-21.48-23.85-30.79-50.6-20.76-59.63,2.19-1.97,5.18-2.98,8.89-2.98,12.78,0,32.17,12,48.25,29.85,10.45,11.6,18.35,24.24,22.24,35.57,3.84,11.19,3.32,19.74-1.48,24.06-2.19,1.97-5.18,2.98-8.89,2.98Z"/>
      <path d="m433.7,66.94v1h0c12.65,0,31.88,11.93,47.87,29.68,10.4,11.55,18.27,24.13,22.14,35.4,3.78,10.99,3.3,19.35-1.34,23.53-2.1,1.89-4.98,2.85-8.56,2.85-12.65,0-31.89-11.93-47.87-29.68-10.4-11.55-18.27-24.13-22.14-35.4-3.78-10.99-3.3-19.35,1.34-23.53,2.1-1.89,4.98-2.85,8.56-2.85v-1m0,0c-3.73,0-6.89,1-9.23,3.1-10.25,9.23-.97,36.24,20.72,60.34,16.75,18.6,35.99,30.02,48.62,30.02,3.73,0,6.89-1,9.23-3.1,10.25-9.23.97-36.24-20.72-60.34-16.75-18.6-35.99-30.02-48.62-30.02h0Z"/>
    </g>
  </g>
  <g id="Layer_4" data-name="Layer 4">
    <path class="cls-2" d="m30.59,180.5L138.59,45.5s-19.17-17.5-36-16c-13.95,1.24-63-6-96,66C-.14,110.18-.41,130.5,1.59,149.5c0,0,0,29,29,31Z"/>
    <path class="cls-2" d="m419.99,43.82l108.99,134.2s21.17-15.01,23.28-31.78c1.75-13.89,19.24-60.29-44.11-107.82-12.91-9.69-32.72-14.27-51.71-16.35,0,0-28.34-6.16-36.45,21.76Z"/>
    <rect class="cls-2" x="249.59" y=".5" width="61" height="44"/>
  </g>
  <g id="Layer_2" data-name="Layer 2">
    <g>
      <path class="cls-1" d="m281.09,502.5c-63.17,0-122.56-24.6-167.23-69.27s-69.27-104.06-69.27-167.23,24.6-122.56,69.27-167.23S217.92,29.5,281.09,29.5s122.56,24.6,167.23,69.27,69.27,104.06,69.27,167.23-24.6,122.56-69.27,167.23-104.06,69.27-167.23,69.27Z"/>
      <path d="m281.09,30c31.86,0,62.77,6.24,91.86,18.55,28.1,11.89,53.34,28.9,75.02,50.58,21.67,21.67,38.69,46.91,50.58,75.02,12.31,29.09,18.55,60,18.55,91.86s-6.24,62.77-18.55,91.86c-11.89,28.1-28.9,53.34-50.58,75.02-21.67,21.67-46.91,38.69-75.02,50.58-29.09,12.31-60,18.55-91.86,18.55s-62.77-6.24-91.86-18.55c-28.1-11.89-53.34-28.9-75.02-50.58-21.67-21.67-38.69-46.91-50.58-75.02-12.31-29.09-18.55-60-18.55-91.86s6.24-62.77,18.55-91.86c11.89-28.1,28.9-53.34,50.58-75.02,21.67-21.67,46.91-38.69,75.02-50.58,29.09-12.31,60-18.55,91.86-18.55m0-1c-130.89,0-237,106.11-237,237s106.11,237,237,237,237-106.11,237-237S411.98,29,281.09,29h0Z"/>
    </g>
  </g>
  <g id="Layer_1" data-name="Layer 1">
    <g>
      <circle class="cls-3" cx="281.09" cy="266" r="198.5"/>
      <path d="m281.09,68c26.73,0,52.66,5.23,77.07,15.56,23.58,9.97,44.75,24.25,62.94,42.43,18.18,18.18,32.46,39.36,42.43,62.94,10.32,24.41,15.56,50.34,15.56,77.07s-5.23,52.66-15.56,77.07c-9.97,23.58-24.25,44.75-42.43,62.94-18.18,18.18-39.36,32.46-62.94,42.43-24.41,10.32-50.34,15.56-77.07,15.56s-52.66-5.23-77.07-15.56c-23.58-9.97-44.75-24.25-62.94-42.43-18.18-18.18-32.46-39.36-42.43-62.94-10.32-24.41-15.56-50.34-15.56-77.07s5.23-52.66,15.56-77.07c9.97-23.58,24.25-44.75,42.43-62.94,18.18-18.18,39.36-32.46,62.94-42.43,24.41-10.32,50.34-15.56,77.07-15.56m0-1c-109.9,0-199,89.1-199,199s89.1,199,199,199,199-89.1,199-199-89.1-199-199-199h0Z"/>
    </g>
  </g>
</svg>