<svg width="24" xmlns="http://www.w3.org/2000/svg" height="24" id="screenshot-034f8560-b393-801a-8008-29fa28dbb3fe" viewBox="0 0 24 24" xmlns:xlink="http://www.w3.org/1999/xlink" fill="none" version="1.1"><g id="shape-034f8560-b393-801a-8008-29fa28dbb3fe" width="24" height="24" rx="0" ry="0" style="fill: rgb(0, 0, 0);"><g id="shape-034f8560-b393-801a-8008-29fa28dbb3ff" style="display: none;"><g class="fills" id="fills-034f8560-b393-801a-8008-29fa28dbb3ff"><rect width="24" height="24" x="0" transform="matrix(1.000000, 0.000000, 0.000000, 1.000000, 0.000000, 0.000000)" style="fill: rgb(56, 137, 255); fill-opacity: 1;" ry="0" fill="none" rx="0" y="0"/></g></g><g id="shape-034f8560-b393-801a-8008-29fa28dbb400"><g class="fills" id="fills-034f8560-b393-801a-8008-29fa28dbb400"><path d="M23,12L20.56005859375,9.210006713867188L20.9000244140625,5.5200042724609375L17.2900390625,4.6999969482421875L15.4000244140625,1.5L12,2.9600067138671875L8.5999755859375,1.5L6.7099609375,4.69000244140625L3.0999755859375,5.5L3.43994140625,9.199996948242188L1,12L3.43994140625,14.789993286132812L3.0999755859375,18.489990234375L6.7099609375,19.30999755859375L8.5999755859375,22.5L12,21.029998779296875L15.4000244140625,22.489990234375L17.2900390625,19.29998779296875L20.9000244140625,18.480010986328125L20.56005859375,14.789993286132812ZM10.090087890625,16.720001220703125L6.2900390625,12.910003662109375L7.77001953125,11.42999267578125L10.090087890625,13.759994506835938L15.93994140625,7.8899993896484375L17.419921875,9.3699951171875Z" style="fill: rgb(56, 137, 255); fill-opacity: 1;"/></g></g></g></svg>